<svg width="176" height="71" viewBox="0 0 176 71" fill="none" xmlns="http://www.w3.org/2000/svg">
<rect width="77" height="71" rx="5" fill="#493D9E"/>
<path fill-rule="evenodd" clip-rule="evenodd" d="M8 38.8535C8.97994 44.832 11.491 49.9892 15.5332 54.3252C20.8161 60.1084 27.3933 63 35.2648 63C43.1363 63 49.7135 60.1084 54.9964 54.3252C60.3322 48.6016 63 41.4472 63 32.8618V8H38.1962V20.6014L50.6967 20.3415V32.8618C50.6967 38.1238 49.1192 40.6238 46.1441 45.3387C46.0517 45.4851 45.9579 45.6337 45.8628 45.7846C42.6931 49.1829 40.3892 51.1951 35.2648 51.1951C30.1404 51.1951 28.3404 49.8537 25.1178 46.4553C23.1811 44.3789 21.9202 41.7906 21.2323 38.8535H8Z" fill="white"/>
<rect x="21.059" y="20.9673" width="17.1372" height="17.8862" fill="#FFF2AF"/>
<path d="M89.336 45.336C86.696 45.336 84.848 44.272 83.792 42.144L86.648 40.512C87.176 41.568 88.072 42.096 89.336 42.096C90.216 42.096 90.872 41.888 91.304 41.472C91.736 41.056 91.952 40.488 91.952 39.768V28.2H95.24V39.768C95.24 41.528 94.688 42.896 93.584 43.872C92.496 44.848 91.08 45.336 89.336 45.336ZM106 33H109.096V45H106V43.656C105.264 44.776 104.072 45.336 102.424 45.336C101.112 45.336 100.024 44.896 99.1601 44.016C98.3121 43.12 97.8881 41.904 97.8881 40.368V33H100.984V39.984C100.984 40.8 101.2 41.416 101.632 41.832C102.064 42.248 102.64 42.456 103.36 42.456C104.176 42.456 104.816 42.216 105.28 41.736C105.76 41.24 106 40.488 106 39.48V33ZM125.204 32.664C125.892 32.664 126.516 32.784 127.076 33.024C127.636 33.248 128.108 33.576 128.492 34.008C128.892 34.44 129.196 34.96 129.404 35.568C129.628 36.176 129.74 36.856 129.74 37.608V45H126.644V37.824C126.644 37.104 126.468 36.544 126.116 36.144C125.764 35.744 125.268 35.544 124.628 35.544C123.908 35.544 123.356 35.776 122.972 36.24C122.588 36.704 122.396 37.376 122.396 38.256V45H119.3V37.824C119.3 37.104 119.124 36.544 118.772 36.144C118.42 35.744 117.924 35.544 117.284 35.544C116.596 35.544 116.044 35.776 115.628 36.24C115.228 36.704 115.028 37.376 115.028 38.256V45H111.932V33H115.028V34.272C115.748 33.2 116.86 32.664 118.364 32.664C119.836 32.664 120.924 33.24 121.628 34.392C122.412 33.24 123.604 32.664 125.204 32.664ZM139.935 33H143.247L138.879 45C138.255 46.744 137.431 48 136.407 48.768C135.383 49.536 134.095 49.88 132.543 49.8V46.92C133.375 46.936 134.031 46.76 134.511 46.392C135.007 46.024 135.399 45.432 135.687 44.616L130.767 33H134.151L137.271 41.064L139.935 33ZM146.827 36.408C146.827 36.728 147.035 36.992 147.451 37.2C147.883 37.392 148.403 37.568 149.011 37.728C149.443 37.824 149.899 37.952 150.379 38.112C150.859 38.272 151.291 38.496 151.675 38.784C152.075 39.072 152.395 39.44 152.635 39.888C152.891 40.32 153.019 40.856 153.019 41.496C153.019 42.728 152.555 43.68 151.627 44.352C150.699 45.008 149.555 45.336 148.195 45.336C145.731 45.336 144.051 44.384 143.155 42.48L145.843 40.968C146.211 42.008 146.995 42.528 148.195 42.528C149.299 42.528 149.851 42.184 149.851 41.496C149.851 41.176 149.635 40.92 149.203 40.728C148.787 40.52 148.275 40.336 147.667 40.176C147.219 40.064 146.755 39.928 146.275 39.768C145.811 39.592 145.379 39.368 144.979 39.096C144.595 38.824 144.275 38.48 144.019 38.064C143.779 37.632 143.659 37.104 143.659 36.48C143.659 35.296 144.091 34.368 144.955 33.696C145.835 33.008 146.923 32.664 148.219 32.664C149.195 32.664 150.083 32.888 150.883 33.336C151.683 33.768 152.315 34.392 152.779 35.208L150.139 36.648C149.755 35.832 149.115 35.424 148.219 35.424C147.819 35.424 147.483 35.512 147.211 35.688C146.955 35.864 146.827 36.104 146.827 36.408ZM161.522 35.976H158.81V40.968C158.81 41.288 158.866 41.536 158.978 41.712C159.09 41.888 159.258 42.016 159.482 42.096C159.722 42.176 160.01 42.224 160.346 42.24C160.682 42.24 161.074 42.224 161.522 42.192V45C160.466 45.128 159.562 45.136 158.81 45.024C158.074 44.928 157.474 44.72 157.01 44.4C156.562 44.064 156.234 43.616 156.026 43.056C155.818 42.48 155.714 41.784 155.714 40.968V35.976H153.626V33H155.714V30.576L158.81 29.64V33H161.522V35.976ZM165.946 40.272C166.346 41.776 167.474 42.528 169.33 42.528C170.514 42.528 171.41 42.128 172.018 41.328L174.514 42.768C173.33 44.48 171.586 45.336 169.282 45.336C167.298 45.336 165.706 44.736 164.506 43.536C163.306 42.336 162.706 40.824 162.706 39C162.706 37.208 163.298 35.704 164.482 34.488C165.65 33.272 167.17 32.664 169.042 32.664C170.818 32.664 172.266 33.272 173.386 34.488C174.538 35.72 175.114 37.224 175.114 39C175.114 39.208 175.098 39.416 175.066 39.624C175.05 39.832 175.026 40.048 174.994 40.272H165.946ZM172.018 37.872C171.842 37.056 171.482 36.448 170.938 36.048C170.394 35.648 169.762 35.448 169.042 35.448C168.21 35.448 167.522 35.664 166.978 36.096C166.434 36.512 166.074 37.104 165.898 37.872H172.018Z" fill="#493D9E"/>
</svg>
