<svg width="22" height="21" viewBox="0 0 22 21" fill="none" xmlns="http://www.w3.org/2000/svg">
<path d="M9 19.569C5.571 20.726 2.714 19.569 1 16.001" stroke="white" stroke-width="1.5" stroke-linecap="round" stroke-linejoin="round"/>
<path d="M9 21.0005V17.7585C9 17.1605 9.184 16.6405 9.48 16.1705C9.684 15.8485 9.544 15.3905 9.177 15.2905C6.134 14.4525 4 13.1075 4 8.64552C4 7.48552 4.38 6.39552 5.048 5.44552C5.214 5.20952 5.298 5.09152 5.318 4.98552C5.338 4.87752 5.303 4.73852 5.233 4.45852C4.95 3.32252 4.969 2.11552 5.393 1.02852C5.393 1.02852 6.27 0.741516 8.267 1.98852C8.723 2.27352 8.951 2.41652 9.152 2.44852C9.353 2.48052 9.621 2.41352 10.157 2.27952C10.9234 2.08951 11.7104 1.99579 12.5 2.00052C13.2895 1.99714 14.0765 2.09119 14.843 2.28052C15.379 2.41452 15.648 2.48052 15.849 2.44952C16.049 2.41752 16.277 2.27452 16.733 1.98952C18.73 0.742516 19.607 1.02952 19.607 1.02952C20.031 2.11652 20.05 3.32352 19.767 4.45952C19.697 4.73952 19.663 4.87952 19.683 4.98552C19.703 5.09152 19.786 5.21052 19.952 5.44652C20.62 6.39652 21 7.48652 21 8.64652C21 13.1085 18.866 14.4535 15.823 15.2895C15.456 15.3905 15.316 15.8485 15.52 16.1695C15.816 16.6395 16 17.1595 16 17.7585V21.0005" stroke="white" stroke-width="1.5" stroke-linecap="round" stroke-linejoin="round"/>
</svg>
