<svg width="22" height="22" viewBox="0 0 22 22" fill="none" xmlns="http://www.w3.org/2000/svg">
<path d="M16.2778 8.77778L18.2222 11L16.2778 13.2222M13.7778 21V1M3.22222 21H18.7778C19.3671 21 19.9324 20.7659 20.3491 20.3491C20.7659 19.9324 21 19.3671 21 18.7778V3.22222C21 2.63285 20.7659 2.06762 20.3491 1.65087C19.9324 1.23413 19.3671 1 18.7778 1H3.22222C2.63285 1 2.06762 1.23413 1.65087 1.65087C1.23413 2.06762 1 2.63285 1 3.22222V18.7778C1 19.3671 1.23413 19.9324 1.65087 20.3491C2.06762 20.7659 2.63285 21 3.22222 21Z" stroke="#A3A2A2" stroke-width="2" stroke-linecap="round" stroke-linejoin="round"/>
</svg>
