<svg width="21" height="18" viewBox="0 0 21 18" fill="none" xmlns="http://www.w3.org/2000/svg">
<path d="M19.2101 0.154509C19.2101 0.154509 21.1526 -0.602992 20.9901 1.23651C20.9366 1.99401 20.4511 4.64551 20.0731 7.51301L18.7781 16.008C18.7781 16.008 18.6701 17.2525 17.6986 17.469C16.7276 17.685 15.2706 16.7115 15.0006 16.495C14.7846 16.3325 10.9536 13.8975 9.60465 12.7075C9.22665 12.3825 8.79465 11.7335 9.65865 10.976L15.3246 5.56501C15.9721 4.91501 16.6196 3.40001 13.9216 5.24001L6.36665 10.38C6.36665 10.38 5.50315 10.9215 3.88465 10.4345L0.376647 9.35201C0.376647 9.35201 -0.918353 8.54051 1.29415 7.72901C6.69065 5.18601 13.3281 2.58901 19.2096 0.154009" fill="white"/>
</svg>
